<?xml version="1.0" encoding="utf-8"?>
<!-- Generator: Adobe Illustrator 27.2.0, SVG Export Plug-In . SVG Version: 6.00 Build 0)  -->
<svg version="1.1" id="Capa_1" xmlns="http://www.w3.org/2000/svg" xmlns:xlink="http://www.w3.org/1999/xlink" x="0px" y="0px"
	 viewBox="0 0 274 90" style="enable-background:new 0 0 274 90;" xml:space="preserve">
<style type="text/css">
	.st0{fill:#D5933C;}
	.st1{fill:#192829;}
	.st2{fill:#D09337;}
	.st3{fill:#955215;}
	.st4{fill:#FFFFFF;}
	.st5{fill:#1C2A2D;}
	.st6{fill:#9B5516;}
	.st7{fill:#D4903B;}
	.st8{fill:#FCFDFB;}
	.st9{fill:#9E5616;}
	.st10{fill:#1A2930;}
	.st11{fill:#8B4B14;}
	.st12{fill:#D39439;}
</style>
<path class="st0" d="M47,84.9c22.1,0,40-17.9,40-40C86.9,22.9,69,5,47,5C24.9,5,7,22.9,7,45C7,67,24.9,84.9,47,84.9z"/>
<path class="st1" d="M15.8,69.9l30.1-0.1v-5h4.4v5.1l16.6-0.1l0-39.3H63l-3.5-2.8l7.5,0c0,0.2,0-8.1,0-8.1l-13.3,7.7l-2.3-1.6
	l17.3-10.4l13.2,12.4l4.6,0.1l0,2.6L84,30.5l0,2.8l-8.2,0l-0.1-2.9c0,0.1-6.1,0-6.1,0l0,39.5l8.6-0.1C70.8,79.3,60.4,84.8,48.7,85
	C38.5,85.1,26.3,82.8,15.8,69.9z"/>
<path class="st2" d="M26.9,73.8l40.4,0c-4.2,4-10.3,7.4-20.2,7.6C40.8,81.5,31.5,78.7,26.9,73.8z"/>
<path class="st3" d="M45.8,64.8h4.5v5.1h8.7l0-37.2L55.2,35l-0.1,21.1L45.8,62V64.8z"/>
<path class="st4" d="M40.6,69.8l5.2,0V62l9.3-5.9V28.2l-14.6-9.6V69.8z"/>
<path class="st5" d="M45.9,32.8h-3v3.9h3V32.8z"/>
<path class="st5" d="M51.4,32.8h-3v3.9h3V32.8z"/>
<path class="st5" d="M45.9,41.9h-3v3.9h3V41.9z"/>
<path class="st5" d="M51.4,41.9h-3v3.9h3V41.9z"/>
<path class="st5" d="M51.4,50.9h-3v3.9h3V50.9z"/>
<path class="st5" d="M45.9,50.9h-3v3.9h3V50.9z"/>
<path class="st6" d="M36,26.3l4.6-3.9V29L36,31.6V26.3z"/>
<path class="st6" d="M36.9,59.1v10.8l3.7,0v-8.2L36.9,59.1z"/>
<path class="st7" d="M27.2,52.5v17.4h9.7V59.2L27.2,52.5z"/>
<path class="st8" d="M27.2,52.4l0,17.5l-9.6,0V58.8L27.2,52.4z"/>
<path class="st9" d="M23.7,45.9c5.6,0,10.1-4.4,10.1-9.8c0-5.4-4.5-9.8-10.1-9.8c-5.6,0-10.1,4.4-10.1,9.8
	C13.6,41.5,18.2,45.9,23.7,45.9z"/>
<path class="st4" d="M25.1,45c4.9,0,8.8-4.2,8.8-9.4c0-5.2-4-9.4-8.8-9.4c-4.9,0-8.8,4.2-8.8,9.4C16.2,40.9,20.2,45,25.1,45z"/>
<path class="st10" d="M33.3,39.6c-0.6,1.7-2.5,3.3-4.2,4.4c-1.2,0.8-3,1.9-5.7,1.9L23.3,55l3.9-2.6l13.4,9.3V34.1H13l0.1,2.7
	l25.3,0.1L33.3,39.6z"/>
<path class="st0" d="M16.3,36.8L28,36.8v7.8c-0.3,0.1-4.7,1.6-8.4-1.6C16.2,40.2,16.3,37.3,16.3,36.8z"/>
<path class="st6" d="M23.3,46.7c0.5,0.1,1.3,0.2,2.3-0.1c0.8-0.2,1.5-0.5,1.9-0.8c0,0.8,0,1.6,0,2.3l-4.1,2.4L23.3,46.7z"/>
<path class="st6" d="M32.3,44.5l4.6-2.3v9.1l-4.6-0.5V44.5z"/>
<path class="st1" d="M25.3,60.8h-3.1v3.8h3.1V60.8z"/>
<path class="st1" d="M32.3,60.8h-3.1v3.8h3.1V60.8z"/>
<path class="st11" d="M36,31.6c0.1,0,4.6-2.6,4.6-2.6v5.1H36V31.6z"/>
<path class="st4" d="M59.1,32.7l7.8,5.5l0,31.6l-7.8,0V32.7z"/>
<path class="st4" d="M69.7,40.2l6.8,4.7v24.8l-6.8,0L69.7,40.2z"/>
<path class="st4" d="M80.9,30.4h-2.3v2.3h2.3V30.4z"/>
<path class="st0" d="M65,41.4h-3.1V45H65V41.4z"/>
<path class="st0" d="M65,51.3h-3.1v3.6H65V51.3z"/>
<path class="st0" d="M65,61.5h-3.1v3.6H65V61.5z"/>
<path class="st0" d="M74.6,51.3h-3.1v3.6h3.1V51.3z"/>
<path class="st0" d="M74.6,61.5h-3.1v3.6h3.1V61.5z"/>
<path class="st12" d="M69.7,19.5v8.2h8.5L69.7,19.5z"/>
<path class="st1" d="M102.2,46.5h-4.4l0-2.4h3.7c0.6,0,1.2-0.1,1.6-0.2c0.4-0.2,0.7-0.4,0.9-0.7c0.2-0.3,0.3-0.7,0.3-1.2
	c0-0.5-0.1-1-0.3-1.3c-0.2-0.3-0.5-0.6-0.9-0.7c-0.4-0.1-0.9-0.2-1.6-0.2H99V54h-3.5V36.9h6c1,0,1.9,0.1,2.7,0.3
	c0.8,0.2,1.5,0.5,2,0.9c0.5,0.4,1,0.9,1.3,1.5c0.3,0.6,0.4,1.3,0.4,2.1c0,0.7-0.2,1.4-0.5,1.9c-0.3,0.6-0.8,1.1-1.5,1.5
	c-0.7,0.4-1.6,0.6-2.6,0.6L102.2,46.5z M102.1,54h-5.2l1.4-2.7h3.8c0.6,0,1.1-0.1,1.5-0.3c0.4-0.2,0.7-0.5,0.9-0.8
	c0.2-0.3,0.3-0.7,0.3-1.2c0-0.5-0.1-0.9-0.3-1.3c-0.2-0.4-0.4-0.6-0.8-0.8c-0.4-0.2-0.9-0.3-1.5-0.3h-3.4l0-2.4h4.2l0.8,0.9
	c1,0,1.9,0.2,2.5,0.6c0.6,0.4,1.1,0.9,1.4,1.5c0.3,0.6,0.4,1.2,0.4,1.9c0,1.1-0.2,2-0.7,2.8c-0.5,0.7-1.2,1.3-2.1,1.7
	C104.5,53.8,103.4,54,102.1,54z M120.3,36.9h3.5v11.3c0,1.3-0.3,2.4-0.8,3.3c-0.6,0.9-1.3,1.6-2.3,2c-1,0.5-2.1,0.7-3.4,0.7
	s-2.4-0.2-3.4-0.7c-1-0.5-1.8-1.1-2.3-2c-0.6-0.9-0.8-2-0.8-3.3V36.9h3.5v11.3c0,0.8,0.1,1.4,0.4,1.9c0.2,0.5,0.6,0.8,1,1.1
	c0.5,0.2,1,0.3,1.6,0.3c0.6,0,1.2-0.1,1.6-0.3c0.5-0.2,0.8-0.6,1-1.1c0.2-0.5,0.4-1.1,0.4-1.9V36.9z M130.4,36.9V54h-3.5V36.9H130.4
	z M144.7,51.3V54h-8.6v-2.7H144.7z M137.2,36.9V54h-3.5V36.9H137.2z M151.9,54h-3.7l0-2.7h3.7c0.9,0,1.7-0.2,2.3-0.6
	c0.6-0.4,1.1-1,1.4-1.8c0.3-0.8,0.5-1.8,0.5-2.9V45c0-0.9-0.1-1.6-0.3-2.3c-0.2-0.7-0.4-1.2-0.8-1.7c-0.4-0.5-0.8-0.8-1.3-1
	c-0.5-0.2-1.1-0.4-1.8-0.4h-3.8v-2.8h3.8c1.1,0,2.2,0.2,3.1,0.6c1,0.4,1.8,0.9,2.5,1.7c0.7,0.7,1.2,1.6,1.6,2.6
	c0.4,1,0.6,2.1,0.6,3.3v0.8c0,1.2-0.2,2.3-0.6,3.3c-0.4,1-0.9,1.9-1.6,2.6c-0.7,0.7-1.5,1.3-2.5,1.7C154.1,53.8,153.1,54,151.9,54z
	 M150.2,36.9V54h-3.5V36.9H150.2z M177.2,49.5c0-0.3,0-0.6-0.1-0.8c-0.1-0.2-0.2-0.5-0.5-0.7c-0.2-0.2-0.6-0.4-1-0.6
	c-0.4-0.2-1-0.4-1.7-0.6c-0.8-0.2-1.5-0.5-2.2-0.8c-0.7-0.3-1.3-0.7-1.8-1.1c-0.5-0.4-0.9-0.9-1.2-1.5c-0.3-0.6-0.4-1.2-0.4-1.9
	c0-0.7,0.2-1.4,0.5-1.9c0.3-0.6,0.8-1.1,1.3-1.5c0.6-0.4,1.2-0.7,2-1c0.8-0.2,1.6-0.3,2.5-0.3c1.3,0,2.4,0.2,3.3,0.7
	c0.9,0.5,1.7,1.1,2.2,1.9c0.5,0.8,0.8,1.7,0.8,2.7h-3.5c0-0.5-0.1-0.9-0.3-1.3c-0.2-0.4-0.5-0.7-0.9-0.9c-0.4-0.2-0.9-0.3-1.6-0.3
	c-0.6,0-1.1,0.1-1.5,0.3c-0.4,0.2-0.7,0.4-0.9,0.7c-0.2,0.3-0.3,0.6-0.3,1c0,0.3,0.1,0.6,0.2,0.8c0.1,0.2,0.4,0.5,0.7,0.7
	c0.3,0.2,0.6,0.4,1.1,0.6c0.4,0.2,0.9,0.4,1.5,0.5c0.9,0.3,1.7,0.6,2.4,0.9c0.7,0.4,1.3,0.7,1.8,1.2c0.5,0.4,0.8,0.9,1.1,1.5
	c0.2,0.6,0.4,1.2,0.4,1.9c0,0.7-0.1,1.4-0.4,2c-0.3,0.6-0.7,1.1-1.3,1.5c-0.5,0.4-1.2,0.7-2,0.9c-0.8,0.2-1.6,0.3-2.5,0.3
	c-0.8,0-1.7-0.1-2.5-0.3c-0.8-0.2-1.6-0.6-2.2-1c-0.7-0.5-1.2-1-1.6-1.7c-0.4-0.7-0.6-1.5-0.6-2.5h3.5c0,0.5,0.1,1,0.2,1.3
	c0.2,0.4,0.4,0.7,0.7,0.9c0.3,0.2,0.7,0.4,1.1,0.5c0.4,0.1,0.9,0.2,1.4,0.2c0.6,0,1.1-0.1,1.5-0.3c0.4-0.2,0.7-0.4,0.9-0.7
	C177.1,50.3,177.2,49.9,177.2,49.5z M189.7,47.9h-4.3v-2.7h4.3c0.7,0,1.2-0.1,1.6-0.3c0.4-0.2,0.7-0.5,0.9-0.9
	c0.2-0.4,0.3-0.8,0.3-1.3c0-0.5-0.1-1-0.3-1.4c-0.2-0.4-0.5-0.8-0.9-1.1c-0.4-0.3-1-0.4-1.6-0.4h-3.1V54h-3.5V36.9h6.6
	c1.3,0,2.5,0.2,3.4,0.7c1,0.5,1.7,1.1,2.2,2c0.5,0.8,0.8,1.8,0.8,2.9c0,1.1-0.3,2.1-0.8,2.9c-0.5,0.8-1.2,1.4-2.2,1.9
	C192.2,47.7,191,47.9,189.7,47.9z M209.9,43.9v2.7H201v-2.7H209.9z M202,36.9V54h-3.5V36.9H202z M212.4,36.9V54h-3.5V36.9H212.4z
	 M226.9,51.3V54h-9.1v-2.7H226.9z M219,36.9V54h-3.5V36.9H219z M225.7,43.9v2.7h-7.9v-2.7H225.7z M226.9,36.9v2.8h-9.1v-2.8H226.9z
	 M229,36.9h6.4c1.3,0,2.4,0.2,3.4,0.6c0.9,0.4,1.7,1,2.2,1.7c0.5,0.8,0.8,1.7,0.8,2.8c0,0.9-0.2,1.7-0.5,2.4
	c-0.3,0.6-0.7,1.2-1.3,1.6c-0.6,0.4-1.2,0.8-2,1l-1.1,0.6h-5.5l0-2.7h4.1c0.6,0,1.1-0.1,1.5-0.3c0.4-0.2,0.7-0.5,0.9-0.9
	c0.2-0.4,0.3-0.8,0.3-1.4c0-0.5-0.1-1-0.3-1.4c-0.2-0.4-0.5-0.7-0.9-0.9c-0.4-0.2-0.9-0.3-1.6-0.3h-2.8V54H229V36.9z M238.5,54
	l-3.9-7.6l3.7,0l3.9,7.5V54H238.5z M255.8,51.3V54h-9.1v-2.7H255.8z M247.9,36.9V54h-3.5V36.9H247.9z M254.6,43.9v2.7h-7.9v-2.7
	H254.6z M255.8,36.9v2.8h-9.1v-2.8H255.8z"/>
</svg>
